<?xml version="1.0" standalone="no"?><!DOCTYPE svg PUBLIC "-//W3C//DTD SVG 1.1//EN" "http://www.w3.org/Graphics/SVG/1.1/DTD/svg11.dtd"><svg class="icon" height="512" viewBox="0 0 1024 1024" version="1.1" xmlns="http://www.w3.org/2000/svg"><path d="M604.709495 332.874343c-23.63428-66.317405-84.114746-113.651456-154.726967-113.651456-91.110067 0-164.221202 78.796624-164.221202 174.306908 0 59.694567 28.118408 112.223944 70.863954 143.264914-96.735182 40.59251-164.221202 139.683343-164.221202 255.488859l46.116317 0c0-114.612341 82.112136-210.122625 186.716542-223.252667 1.12666 0 29.246091-2.388397 52.867068 0l2.25025 0c13.735839 2.081405 27.050076 5.562692 39.803541 10.302647-10.30367-19.884886-17.061584-42.185798-19.348674-65.933665-15.485693 7.365758-32.6844 11.45489-50.825572 11.45489-68.612681 0-123.729999-58.500369-123.729999-131.326001 0-72.828702 55.117318-131.326001 123.729999-131.326001 55.648414 0 102.418624 38.480406 118.106932 91.87857C579.303872 345.458963 591.593779 338.296843 604.709495 332.874343L604.709495 332.874343zM604.709495 332.874343M729.814818 608.528474c42.741453-31.041994 70.860884-83.573417 70.860884-143.265938 0-96.704482-74.237795-175.501106-165.345816-175.501106-91.106997 0-164.218132 78.796624-164.218132 174.306908 0 59.691497 28.119431 112.223944 70.860884 143.264914-96.732112 40.59251-164.218132 139.683343-164.218132 255.488859l0 0 46.116317 0 0 0c0-114.612341 82.109066-210.122625 186.716542-223.255737 1.12359 0 29.246091-2.385327 52.863998 0l2.25025 0 0 0c102.357226 15.522532 181.091428 108.643396 181.091428 222.062562l0 0 47.242977 0 0 0C892.910383 747.017618 825.420269 647.926786 729.814818 608.528474L729.814818 608.528474 729.814818 608.528474zM635.329886 595.395362c-68.612681 0-123.726929-58.500369-123.726929-131.326001 0-72.828702 55.114249-131.329071 123.726929-131.329071 68.613704 0 123.727952 58.500369 123.727952 131.329071C759.056815 536.89397 703.942567 595.395362 635.329886 595.395362L635.329886 595.395362 635.329886 595.395362zM635.329886 595.395362" /></svg>